<?xml version="1.0" standalone="no"?>
<!DOCTYPE svg PUBLIC "-//W3C//DTD SVG 1.1//EN" "http://www.w3.org/Graphics/SVG/1.1/DTD/svg11.dtd" >
<svg xmlns="http://www.w3.org/2000/svg">
<metadata></metadata>
<defs>
<font id="forzabold" horiz-adv-x="1247" >
<font-face units-per-em="2048" ascent="1638" descent="-410" />
<missing-glyph horiz-adv-x="495" />
<glyph horiz-adv-x="2048" />
<glyph horiz-adv-x="2048" />
<glyph unicode="&#xd;" horiz-adv-x="681" />
<glyph unicode=" "  horiz-adv-x="495" />
<glyph unicode="&#x09;" horiz-adv-x="495" />
<glyph unicode="&#xa0;" horiz-adv-x="495" />
<glyph unicode="!" horiz-adv-x="684" d="M430 471h-156l-112 883v80h360v-80zM182 328h320v-328h-320v328z" />
<glyph unicode="&#x22;" horiz-adv-x="1024" d="M227 793l-98 569v72h334v-72l-96 -569h-140zM692 793l-96 569v72h334v-72l-99 -569h-139z" />
<glyph unicode="#" horiz-adv-x="1615" d="M203 1120h272l76 314h283l-70 -314h272l76 314h291l-76 -314h209v-248h-268l-68 -278h213v-248h-272l-84 -346h-291l84 346h-268l-84 -346h-293l84 346h-209v248h268l68 278h-213v248zM694 893l-76 -318h306l75 318h-305z" />
<glyph unicode="$" horiz-adv-x="1380" d="M817 -195h-248v195h-135q-180 0 -246 66q-45 45 -61 126.5t-18 270.5h294q4 -172 25 -192.5t98 -20.5h72v344l-195 20q-141 14 -202 74q-41 43 -57.5 112.5t-16.5 215.5q0 258 92 350q68 68 223 68h127v174h248v-174h105q180 0 243 -64q45 -45 63.5 -122t20.5 -261h-295 q-4 158 -24 178q-18 18 -86 19h-56v-330l207 -20q143 -18 199 -74q43 -43 60.5 -114t17.5 -214q0 -272 -92 -364q-68 -68 -203 -68h-160v-195zM852 569l-64 6v-325h66q76 0 94 18q23 23 23 152q0 102 -23 123q-16 18 -96 26zM451 903q14 -16 96 -24l51 -7v312h-66 q-68 0 -83 -17q-20 -20 -21 -139q0 -105 23 -125z" />
<glyph unicode="%" horiz-adv-x="1759" d="M506 1056.5q0 155.5 -19 174.5q-16 16 -65 16h-37q-49 0 -66 -16q-18 -18 -18 -174t18 -174q14 -14 66 -15h37q51 0 65 15q19 18 19 173.5zM713 1057q0 -260 -74 -330q-51 -47 -158 -47h-155q-106 0 -158 47q-74 70 -74 330t74 329q47 47 158 48h155q111 0 158 -48 q74 -69 74 -329zM496 -6h-228l527 754l469 692h227l-526 -754zM1458 376.5q0 155.5 -18 174.5q-16 16 -66 16h-37q-49 0 -65 -16q-18 -18 -18.5 -174t18.5 -174q14 -14 65 -15h37q51 0 66 15q18 18 18 173.5zM1665 377q0 -260 -74 -330q-51 -47 -157 -47h-156 q-106 0 -158 47q-74 70 -73.5 330t73.5 330q47 47 158 47h156q111 0 157 -47q74 -70 74 -330z" />
<glyph unicode="&#x26;" horiz-adv-x="1517" d="M1493 0h-383l-164 176h-18l-27 -37q-102 -141 -276 -141h-181q-178 0 -254 74q-47 47 -66.5 127t-19.5 239q0 143 12.5 199.5t59.5 101.5q57 57 195 82q-37 84 -37 232q0 133 16.5 201.5t59.5 111.5q70 68 256 68h221q170 0 233 -64q45 -45 61.5 -120.5t16.5 -245.5h-299 q-2 152 -20 172q-18 16 -78 16h-53q-61 0 -82 -21q-18 -18 -19 -131q0 -78 19 -122q25 -47 100 -134l168 -182h10l182 238h336v-4l-336 -428l367 -404v-4zM575 244q51 0 81 12t59 49l43 57l-230 248l-49 -12q-37 -8 -57.5 -28.5t-20.5 -133.5q0 -139 27 -170q20 -23 111 -22 h36z" />
<glyph unicode="'" horiz-adv-x="585" d="M233 793l-98 569v72h334v-72l-96 -569h-140z" />
<glyph unicode="(" horiz-adv-x="823" d="M176 563q0 338 25 453q33 156 319 465h199q-170 -313 -189 -400q-27 -119 -26.5 -518t26.5 -518q18 -86 189 -399h-199q-287 309 -319 465q-25 114 -25 452z" />
<glyph unicode=")" horiz-adv-x="823" d="M647 563q0 -338 -24 -452q-33 -156 -320 -465h-199q170 313 189 399q27 119 26.5 518.5t-26.5 517.5q-18 86 -189 400h199q287 -309 320 -465q24 -115 24 -453z" />
<glyph unicode="*" horiz-adv-x="1054" d="M256 807l176 203l78 -45l-88 -254zM152 1182l264 -52v-90l-264 -51v193zM256 1366l166 96l88 -256l-78 -45zM801 807l-168 -96l-88 254l80 45zM905 1182v-193l-264 51v90zM801 1366l-176 -205l-80 45l88 256z" />
<glyph unicode="+" horiz-adv-x="1058" d="M653 1176v-310h308v-245h-308v-308h-245v308h-310v245h310v310h245z" />
<glyph unicode="," horiz-adv-x="538" d="M109 328h321v-283q0 -123 -88 -205l-190 -176l-95 74l140 184q27 35 26 70v8h-114v328z" />
<glyph unicode="-" horiz-adv-x="817" d="M713 530h-607v265h607v-265z" />
<glyph unicode="." horiz-adv-x="538" d="M109 328h321v-328h-321v328z" />
<glyph unicode="/" horiz-adv-x="1105" d="M236 -328h-310l822 1782h307z" />
<glyph unicode="0" horiz-adv-x="1452" d="M819 1169h-186q-90 0 -117 -22q-55 -51 -55 -430q0 -383 55 -428q23 -23 117 -23h186q94 0 119 23q55 45 55 428q0 379 -55 430q-29 22 -119 22zM559 1434h334q119 0 184.5 -16.5t110.5 -59.5q154 -139 153 -641q0 -498 -153 -641q-84 -76 -295 -76h-334 q-117 0 -181.5 17.5t-111.5 58.5q-74 66 -113.5 210t-39.5 431q0 506 153 641q45 43 109.5 59.5t183.5 16.5z" />
<glyph unicode="1" horiz-adv-x="860" d="M670 0h-332v1130l-227 -77l-82 241l379 142h262v-1436z" />
<glyph unicode="2" horiz-adv-x="1376" d="M123 0v184q0 170 19.5 255t72.5 149q66 82 225 137l353 119q100 33 120 71q25 39 25 125q0 78 -29 107q-25 25 -127 24h-153q-90 0 -119 -28q-31 -31 -33 -182h-323q2 172 24.5 261t73.5 140q72 72 274 72h400q174 0 245 -72q96 -100 97 -309v-25q-2 -190 -76 -283 q-63 -82 -246 -145l-342 -119q-86 -29 -119 -65q-33 -39 -32 -135v-13h819v-268h-1149z" />
<glyph unicode="3" horiz-adv-x="1406" d="M811 612h-274v246h262q72 0 96 23q33 37 33 135q0 104 -33 133q-23 25 -96 25h-209q-84 0 -107 -23q-27 -27 -34 -197h-328q2 299 108 406q74 74 273 74h418q184 0 260 -76q96 -96 96 -293q0 -137 -57.5 -218t-151.5 -108v-4q221 -47 221 -332q0 -219 -104 -323 q-80 -80 -262 -80h-435q-197 0 -272 76q-104 104 -106 432h327q8 -201 33 -223q27 -23 113 -23h225q74 0 98 25q35 31 35 149q0 121 -33 154q-24 22 -96 22z" />
<glyph unicode="4" horiz-adv-x="1402" d="M1108 0h-326v344h-706v125q0 104 55 193l410 663q68 109 182 109h385v-850h225v-240h-225v-344zM782 1182h-24l-352 -598h376v598z" />
<glyph unicode="5" horiz-adv-x="1392" d="M422 606l-279 82l50 746h1036v-265h-756l-24 -307l16 -2q59 51 108.5 66.5t151.5 15.5h186q186 0 265 -78q98 -98 98 -372q0 -180 -22.5 -266.5t-77.5 -145.5q-76 -80 -252 -80h-439q-199 0 -270 70q-51 53 -72.5 138t-21.5 253l321 2q2 -147 35 -176q23 -25 111 -25h223 q72 0 98 23q35 35 35 188q0 152 -35 186q-27 23 -98 23h-143q-123 0 -244 -76z" />
<glyph unicode="6" horiz-adv-x="1404" d="M506 1143q-47 -43 -49 -377q72 59 125 80.5t131 21.5h227q184 0 258 -73q90 -88 90 -338q0 -154 -21.5 -239t-74.5 -138q-76 -80 -248 -80h-399q-117 0 -179.5 18.5t-111.5 65.5q-70 66 -105.5 208t-35.5 425q0 279 35.5 423t107.5 212q51 47 114.5 64.5t184.5 17.5h344 q195 0 266 -72q88 -90 95 -361h-330q-8 123 -33 146q-25 25 -111 24h-149q-98 1 -131 -28zM815 612h-194q-80 0 -162 -45q6 -238 49 -276q29 -31 127 -31h182q80 0 107 27q33 33 32 151q0 117 -32 148q-25 26 -109 26z" />
<glyph unicode="7" horiz-adv-x="1263" d="M92 1163v271h1084v-228l-609 -1206h-358l594 1163h-711z" />
<glyph unicode="8" horiz-adv-x="1380" d="M594 856h203q70 0 94 25q33 33 33 141q0 102 -31 133q-29 25 -96 25h-203q-70 0 -96 -25q-33 -31 -33 -133q0 -109 33 -141q24 -25 96 -25zM479 1434h432q178 0 256 -80q96 -94 97 -291q0 -274 -207 -324v-4q221 -45 221 -340q0 -205 -104 -309q-84 -86 -269 -86h-422 q-182 0 -268 86q-104 104 -104 309q0 295 223 340v4q-207 49 -207 324q0 197 94 291q80 80 258 80zM596 254h199q80 0 108 27q35 37 35 151q0 121 -35 156q-29 29 -108 28h-199q-80 0 -111 -28q-35 -35 -34 -156q0 -115 36 -151q27 -27 109 -27z" />
<glyph unicode="9" horiz-adv-x="1411" d="M905 293q47 43 49 354q-72 -59 -126 -80.5t-132 -21.5h-229q-182 0 -256 73q-90 90 -90 349q0 160 21.5 246.5t74.5 142.5q78 78 248 78h401q117 0 179.5 -18.5t111.5 -65.5q70 -66 105.5 -208.5t35.5 -424.5q0 -500 -143 -633q-51 -47 -114.5 -65.5t-184.5 -18.5h-367 q-195 0 -266 74q-53 51 -72.5 131t-23.5 213h330q6 -104 30 -129q27 -25 111 -25h176q98 0 131 29zM594 801h197q80 0 161 45q-10 264 -49 299q-29 29 -127 29h-184q-82 0 -107 -25q-33 -33 -32 -164q0 -127 32 -158q25 -26 109 -26z" />
<glyph unicode=":" horiz-adv-x="542" d="M111 328h321v-328h-321v328zM111 1126h321v-325h-321v325z" />
<glyph unicode=";" horiz-adv-x="540" d="M111 1126h323v-325h-323v325zM111 328h321v-283q0 -123 -88 -205l-190 -176l-95 74l140 184q27 35 26 70v8h-114v328z" />
<glyph unicode="&#x3c;" horiz-adv-x="1017" d="M893 971l-504 -226l504 -225v-291l-791 387v254l791 387v-286z" />
<glyph unicode="=" horiz-adv-x="1058" d="M109 842v250h841v-250h-841zM109 397v250h841v-250h-841z" />
<glyph unicode="&#x3e;" horiz-adv-x="1017" d="M127 229v289l504 225l-504 226v288l791 -387v-254z" />
<glyph unicode="?" horiz-adv-x="1169" d="M76 965q0 186 17.5 273t62.5 132q66 63 241 64h377q158 0 225 -68q80 -82 80 -299v-33q-2 -123 -19.5 -180t-72.5 -109q-16 -14 -39.5 -28.5t-42.5 -22.5l-65 -30l-76 -35q-55 -25 -90 -56q-25 -29 -33 -102h-244v49q0 111 10.5 159t41.5 79q43 43 169 98q86 37 117 64 q25 27 25 124q0 96 -19 115q-16 14 -86 15h-159q-72 0 -90 -19q-20 -20 -23 -190h-307zM358 326h318v-326h-318v326z" />
<glyph unicode="@" horiz-adv-x="1867" d="M1444 221q74 0 106.5 35t46 124t13.5 298q0 465 -115 575q-41 43 -98.5 59.5t-177.5 16.5h-547q-129 0 -187.5 -18.5t-109.5 -69.5q-115 -115 -115 -678t117 -680q49 -49 109.5 -67.5t185.5 -18.5h876v-104h-891q-158 0 -234.5 27.5t-135.5 89.5q-145 145 -145.5 753 t145.5 754q59 61 136 89t234 28h578q152 0 226.5 -27t129.5 -84q137 -137 138 -645q0 -403 -95 -502q-66 -66 -172 -65h-110q-160 0 -256 129q-86 -80 -130 -104.5t-102 -24.5h-67q-137 0 -197 59q-43 43 -63.5 130t-20.5 265t22.5 264t67.5 132q59 59 195 59h71 q57 0 102.5 -22.5t121.5 -92.5l41 115h211l-13 -225v-492q0 -37 21 -61q25 -21 88 -21zM950 315q57 0 129 33v434q-68 33 -121 33h-75q-61 0 -82 -20q-31 -29 -31 -229.5t31 -229.5q23 -20 82 -21h67z" />
<glyph unicode="A" horiz-adv-x="1449" d="M1069 0l-108 356h-494l-107 -356h-333l444 1346q20 59 40.5 76.5t76.5 17.5h276q53 0 75 -17.5t42 -76.5l444 -1346h-356zM700 1139l-159 -533h346l-160 533h-27z" />
<glyph unicode="B" horiz-adv-x="1433" d="M154 0v1434h821q178 0 250 -70q96 -92 96 -307q0 -147 -55.5 -218t-173.5 -100v-4q129 -27 185 -98.5t56 -235.5q0 -229 -100 -325q-78 -76 -254 -76h-825zM487 856h379q68 0 84 14q31 35 31 150q0 113 -29 141q-20 16 -86 17h-379v-322zM993 434q0 133 -30 168 q-20 18 -86 19h-390v-363h390q70 0 86 16q30 31 30 160z" />
<glyph unicode="C" horiz-adv-x="1417" d="M1323 535q-6 -211 -31.5 -310.5t-85.5 -154.5q-72 -70 -258 -70h-438q-186 0 -258 70q-70 66 -105.5 205t-35.5 442q0 305 35.5 443t105.5 204q72 70 258 70h438q186 0 258 -70q59 -55 86 -153.5t29 -295.5h-320q-6 199 -40 234q-20 20 -99 20h-266q-78 0 -98 -20 q-45 -41 -45 -432q0 -387 45 -432q23 -18 98 -19h266h12q63 0 87 19q35 35 40 250h322z" />
<glyph unicode="D" horiz-adv-x="1476" d="M154 1434h680q152 0 241.5 -26t151.5 -85q74 -72 108.5 -209t34.5 -397q0 -258 -35 -396.5t-108 -209.5q-61 -59 -151.5 -85t-241.5 -26h-680v1434zM1026 717q0 215 -13.5 301t-45.5 117q-41 39 -166 39h-314v-914h314q125 0 166 41q33 29 46 116t13 300z" />
<glyph unicode="E" horiz-adv-x="1323" d="M1229 264v-264h-1075v1434h1075v-265h-742v-307h578v-252h-578v-346h742z" />
<glyph unicode="F" horiz-adv-x="1236" d="M1180 1171h-693v-358h519v-252h-519v-561h-333v1434h1026v-263z" />
<glyph unicode="G" horiz-adv-x="1452" d="M512 1434h440q197 0 265 -66q59 -55 86.5 -141t29.5 -264h-321q-4 152 -45 188q-20 20 -97 20h-268q-78 0 -98 -20q-49 -45 -49 -434q0 -387 49 -436q20 -18 98 -19h275h12q61 0 84 19q47 47 47 211v40h-322v246h648v-178q0 -231 -34 -348t-100 -180q-74 -72 -260 -72 h-440q-186 0 -258 70q-70 66 -105.5 205t-35.5 442q0 305 35.5 443t105.5 204q72 70 258 70z" />
<glyph unicode="H" horiz-adv-x="1556" d="M1405 1434v-1434h-336v600h-582v-600h-333v1434h333v-566h582v566h336z" />
<glyph unicode="I" horiz-adv-x="659" d="M498 0h-336v1434h336v-1434z" />
<glyph unicode="J" horiz-adv-x="1261" d="M373 526q6 -195 32.5 -221t104.5 -26h70q129 0 155 26q39 39 39 266v863h336v-850q0 -240 -25.5 -340.5t-87.5 -163.5q-47 -47 -122.5 -64.5t-221.5 -17.5h-202q-217 0 -293 78q-57 55 -80 148t-25 302h320z" />
<glyph unicode="K" horiz-adv-x="1417" d="M1010 1434h370l-532 -674l555 -760h-393l-430 608h-93v-608h-333v1434h333v-572h88z" />
<glyph unicode="L" horiz-adv-x="1220" d="M487 1434v-1170h682v-264h-1015v1434h333z" />
<glyph unicode="M" horiz-adv-x="1906" d="M1753 1434v-1434h-323v1044h-27l-295 -970q-14 -45 -30.5 -59.5t-55.5 -14.5h-148q-41 0 -57 14.5t-29 59.5l-296 981h-25v-1055h-313v1434h452q45 0 64.5 -16.5t31.5 -61.5l246 -856h25l237 856q12 45 32 61.5t65 16.5h446z" />
<glyph unicode="N" horiz-adv-x="1556" d="M1405 1434v-1434h-270q-57 0 -88 18.5t-60 67.5l-493 885h-21v-971h-319v1434h313q59 0 90 -17.5t57 -68.5l451 -818h20v904h320z" />
<glyph unicode="O" horiz-adv-x="1468" d="M512 1434h444q186 0 258 -70q70 -66 106 -204t36 -443q0 -303 -36 -442.5t-106 -204.5q-72 -70 -258 -70h-444q-186 0 -258 70q-70 66 -105.5 205t-35.5 442q0 305 35.5 443t105.5 204q72 70 258 70zM455 717q0 -387 45 -432q20 -18 98 -19h272h13q63 0 86 19 q45 45 45 432q0 391 -45 432q-20 20 -99 20h-272q-78 0 -98 -20q-45 -41 -45 -432z" />
<glyph unicode="P" horiz-adv-x="1366" d="M487 750h324q94 0 113 16q41 37 41 197q0 156 -41 192q-23 18 -113 19h-324v-424zM1309 958q0 -301 -123 -411q-68 -59 -244 -60h-455v-487h-333v1434h788q178 0 244 -58q57 -53 90 -144.5t33 -273.5z" />
<glyph unicode="Q" horiz-adv-x="1468" d="M1116 -195h-280l-66 195h-258q-186 0 -258 70q-70 66 -105.5 205t-35.5 442q0 305 35.5 443t105.5 204q72 70 258 70h444q186 0 258 -70q70 -66 106 -204t36 -443q0 -303 -36 -442.5t-106 -204.5q-57 -57 -170 -68zM455 717q0 -387 45 -432q20 -18 98 -19h86l-88 269h256 l86 -265q16 2 33 15q43 43 43 432q0 391 -45 432q-20 20 -99 20h-272q-78 0 -98 -20q-45 -41 -45 -432z" />
<glyph unicode="R" horiz-adv-x="1466" d="M487 791h357q80 0 102 18q39 39 39 176t-39 172q-20 16 -102 17h-357v-383zM975 356q-2 123 -41 158q-35 29 -139 29h-308v-543h-333v1434h843q176 0 242 -66q49 -49 70.5 -121.5t21.5 -220.5q0 -186 -55 -263t-184 -99v-5q121 -25 171 -79t54 -201q8 -252 22 -379h-338 q-20 137 -26 356z" />
<glyph unicode="S" horiz-adv-x="1394" d="M1288 432q0 -268 -96 -364q-68 -68 -223 -68h-537q-174 0 -239 63q-45 45 -63.5 130.5t-20.5 273.5h315q4 -168 25 -188q18 -18 92 -19h305q82 0 100 19q20 20 21 143q0 98 -23 121q-18 18 -100 24l-436 45q-139 14 -203 76q-43 45 -61.5 115.5t-18.5 212.5q0 252 98 350 q68 68 219 68h496q178 0 240 -62q47 -47 66.5 -128t21.5 -263h-316q-4 154 -24.5 174.5t-87.5 20.5h-283q-72 0 -88 -17q-18 -18 -18 -135q0 -98 20 -119q14 -14 100 -24l441 -45q139 -14 198 -74q43 -43 61.5 -116t18.5 -214z" />
<glyph unicode="T" horiz-adv-x="1284" d="M1247 1167h-440v-1167h-334v1167h-436v267h1210v-267z" />
<glyph unicode="U" horiz-adv-x="1519" d="M1368 1434v-848q0 -240 -25.5 -339.5t-87.5 -160.5q-49 -49 -124.5 -67.5t-217.5 -18.5h-311q-139 0 -215 18.5t-123 65.5q-61 63 -85.5 161.5t-24.5 340.5v848h333v-871q0 -211 39 -250q29 -29 170 -28h133q137 0 166 28q20 20 28.5 65.5t8.5 184.5v871h336z" />
<glyph unicode="V" horiz-adv-x="1431" d="M1399 1434l-424 -1344q-18 -57 -43 -76.5t-80 -19.5h-274q-55 0 -80 20.5t-43 75.5l-424 1344h364l318 -1139h26l316 1139h344z" />
<glyph unicode="W" horiz-adv-x="2068" d="M2019 1434l-299 -1348q-10 -53 -36.5 -72.5t-88.5 -19.5h-229q-59 0 -86 19.5t-39 74.5l-194 862h-23l-193 -862q-12 -55 -38.5 -74.5t-85.5 -19.5h-232q-61 0 -88 19.5t-37 72.5l-301 1348h363l182 -1053h24l216 956q12 57 39.5 79t87.5 22h169q61 0 88 -20.5t39 -80.5 l216 -956h22l184 1053h340z" />
<glyph unicode="X" horiz-adv-x="1427" d="M1032 0l-315 481h-21l-313 -481h-352l483 727l-471 707h377l299 -455h18l297 455h357l-473 -705l485 -729h-371z" />
<glyph unicode="Y" horiz-adv-x="1339" d="M1341 1434l-507 -908v-526h-324v524l-512 910h356l318 -592h12l317 592h340z" />
<glyph unicode="Z" horiz-adv-x="1359" d="M1268 264v-264h-1178v233l760 934h-725v267h1151v-232l-750 -938h742z" />
<glyph unicode="[" horiz-adv-x="962" d="M188 1464h643v-237h-342v-1297h342v-237h-643v1771z" />
<glyph unicode="\" horiz-adv-x="1103" d="M872 -328l-821 1782h305l820 -1782h-304z" />
<glyph unicode="]" horiz-adv-x="962" d="M774 1464v-1771h-643v237h342v1297h-342v237h643z" />
<glyph unicode="^" horiz-adv-x="1073" d="M743 979l-208 307l-209 -307h-158v10l307 451h123l307 -451v-10h-162z" />
<glyph unicode="_" horiz-adv-x="1017" d="M-8 -367v234h1034v-234h-1034z" />
<glyph unicode="`" horiz-adv-x="1024" d="M823 1255h-237l-355 240v10h418l174 -239v-11z" />
<glyph unicode="a" d="M143 768q2 133 17.5 196.5t52.5 98.5q63 63 201 63h409q162 0 224 -63q39 -39 53 -100.5t14 -200.5v-762h-313v129q-100 -82 -154.5 -106.5t-130.5 -24.5h-154q-141 0 -198 57q-66 66 -66 252q0 205 70 275q41 41 107.5 58t211.5 17q166 0 314 -32v100q0 127 -21 149 q-18 16 -82 17h-159q-61 0 -78 -16.5t-23 -106.5h-295zM590 221q96 0 211 60v188h-207q-139 0 -168 -29q-25 -25 -25 -96q0 -84 21 -104q18 -18 80 -19h88z" />
<glyph unicode="b" horiz-adv-x="1284" d="M137 0v1511h314v-530q106 92 159.5 119.5t122.5 27.5h119q164 0 233 -69q51 -51 72 -153.5t21 -342.5q0 -236 -24 -338t-77 -155q-72 -72 -229 -72h-123q-74 0 -128 24.5t-146 104.5v-127h-314zM621 879q-70 0 -170 -48v-538q92 -43 167 -43h111q78 0 102 24 q20 23 27.5 78.5t7.5 210.5q0 158 -7 213t-28 76q-27 27 -102 27h-108z" />
<glyph unicode="c" horiz-adv-x="1185" d="M801 430h291q0 -168 -15.5 -243.5t-60.5 -120.5q-63 -66 -205 -66h-379q-156 0 -223 70q-57 57 -80 159.5t-23 334t23 333.5t80 162q66 68 223 67h377q143 0 205 -63q45 -45 61 -121q14 -66 15 -197v-32h-291q-4 131 -21 147q-16 18 -73 19h-179q-66 0 -82 -19 q-27 -31 -26 -297q0 -268 26 -295q14 -20 82 -20h181q57 0 75 18q17 17 19 164z" />
<glyph unicode="d" horiz-adv-x="1284" d="M1147 0h-313v145q-104 -92 -158.5 -119.5t-124.5 -27.5h-119q-162 0 -231 70q-53 53 -74 154.5t-21 340.5q0 238 24 339.5t79 156.5q70 70 227 69h123q72 0 126 -24.5t149 -104.5v512h313v-1511zM659 250q74 0 175 47v537q-96 45 -164 45h-113q-76 0 -102 -27 q-23 -20 -30 -75.5t-7 -213t7 -212t30 -77.5q25 -25 102 -24h102z" />
<glyph unicode="e" horiz-adv-x="1230" d="M1081 492h-669q2 -211 26 -240q18 -20 101 -21h190q74 0 92 21q14 16 17 123h288q-2 -236 -75 -309q-66 -66 -201 -66h-418q-156 0 -223 70q-57 57 -80 155.5t-23 338t23 337.5t80 158q66 68 223 67h381q158 0 223 -67q55 -55 72.5 -149.5t17.5 -336.5v-36q0 -25 -9 -35 t-36 -10zM438 874q-25 -25 -26 -206h415q0 180 -24 209q-18 18 -94 18h-170q-83 -1 -101 -21z" />
<glyph unicode="f" horiz-adv-x="823" d="M545 0h-316v881h-170v245h170v54q0 197 66 262q70 70 221 69h240v-237h-133q-49 0 -66 -14q-14 -16 -14 -91v-45h231v-243h-229v-881z" />
<glyph unicode="g" horiz-adv-x="1282" d="M854 -328h-471q-123 0 -180 58q-59 57 -60 254h291q0 -55 17 -72q14 -14 75 -14h203q66 0 82 16q20 20 20 131v203q-102 -88 -155 -113.5t-127 -25.5h-115q-162 0 -233 69q-51 53 -71.5 146.5t-20.5 293.5q0 199 23.5 292.5t76.5 148.5q72 70 229 69h121q74 0 127 -23.5 t145 -103.5v125h316v-1081q0 -141 -15.5 -204.5t-56.5 -104.5q-61 -64 -221 -64zM664 350q70 0 167 45v439q-96 45 -167 45h-107q-78 0 -102 -25q-20 -23 -27.5 -68t-7.5 -172t7 -172t28 -65q27 -27 102 -27h107z" />
<glyph unicode="h" horiz-adv-x="1282" d="M451 0h-314v1511h314v-534q109 96 162 123.5t132 27.5h138q137 0 200 -63q37 -35 51.5 -92.5t14.5 -177.5v-795h-313v758q0 66 -25 92q-25 25 -94 24h-88q-76 0 -178 -47v-827z" />
<glyph unicode="i" horiz-adv-x="581" d="M461 1552v-270h-340v270h340zM446 1126v-1126h-309v1126h309z" />
<glyph unicode="j" horiz-adv-x="598" d="M154 1126v-1106q0 -63 -21 -83q-14 -16 -76 -17h-86v-233q113 -20 191 -21q158 0 229 68q39 39 55.5 97t16.5 173v1122h-309zM477 1552v-270h-340v270h340z" />
<glyph unicode="k" horiz-adv-x="1206" d="M451 0h-314v1511h314v-829h69l322 444h340l-408 -538l428 -588h-368l-314 449h-69v-449z" />
<glyph unicode="l" horiz-adv-x="581" d="M449 0h-316v1511h316v-1511z" />
<glyph unicode="m" horiz-adv-x="1898" d="M137 1126h314v-149q109 96 162 123.5t132 27.5h97q137 0 200 -63q41 -41 54 -100q115 104 170 133.5t137 29.5h96q137 0 201 -63q37 -35 51 -92.5t14 -177.5v-795h-317v760q0 68 -25 92q-27 27 -94 27h-51q-74 0 -170 -45v-39v-795h-313v760q0 68 -25 92q-27 27 -94 27 h-51q-63 0 -174 -48v-831h-314v1126z" />
<glyph unicode="n" horiz-adv-x="1282" d="M451 0h-314v1126h314v-149q109 96 162 123.5t132 27.5h138q137 0 200 -63q37 -35 51.5 -92.5t14.5 -177.5v-795h-313v758q0 66 -25 92q-25 25 -94 24h-88q-76 0 -178 -47v-827z" />
<glyph unicode="o" d="M432 0q-156 0 -223 70q-57 57 -80 159.5t-23 334t23 333.5t80 162q66 68 223 67h383q156 0 223 -67q57 -59 80 -161.5t23 -334t-22.5 -334t-80.5 -159.5q-68 -70 -223 -70h-383zM418 563q0 -268 26 -295q14 -20 82 -20h195q63 0 82 20q27 27 26 295q0 266 -26 297 q-16 18 -82 19h-195q-66 0 -82 -19q-26 -31 -26 -297z" />
<glyph unicode="p" horiz-adv-x="1284" d="M137 1126h314v-145q106 92 159.5 119.5t122.5 27.5h119q164 0 233 -69q51 -51 72 -154.5t21 -341.5q0 -231 -24 -335.5t-77 -157.5q-72 -72 -229 -72h-123q-74 0 -128 24.5t-146 104.5v-455h-314v1454zM621 879q-70 0 -170 -48v-538q92 -43 167 -43h111q78 0 102 24 q20 23 27.5 79.5t7.5 210t-7 210.5t-28 78q-27 27 -102 27h-108z" />
<glyph unicode="q" horiz-adv-x="1284" d="M1149 1126v-1454h-315v455q-94 -80 -147.5 -104.5t-125.5 -24.5h-125q-158 0 -227 72q-55 53 -79 157.5t-24 335.5q0 238 20.5 341.5t74.5 154.5q68 70 231 69h119q72 0 124 -27.5t159 -119.5v145h315zM666 250q76 0 168 43v538q-96 47 -168 48h-109q-76 0 -102 -27 q-23 -20 -30 -77.5t-7 -211t7 -210t30 -79.5q25 -25 102 -24h109z" />
<glyph unicode="r" horiz-adv-x="892" d="M451 0h-314v1126h314v-172q96 100 149 137t117 37h121v-309h-146q-131 0 -241 -45v-774z" />
<glyph unicode="s" horiz-adv-x="1181" d="M1083 344q0 -217 -77 -295q-49 -49 -166 -49h-475q-145 0 -197 53q-35 37 -50.5 99.5t-17.5 205.5h279q2 -98 16 -114q12 -14 60 -15h264q49 0 63 15q12 12 13 86q0 68 -17 82q-14 14 -76 22l-366 41q-119 14 -164 60q-35 35 -46 86t-11 170q0 207 78 284q51 51 165 51 h449q143 0 192 -49q35 -35 49.5 -97t16.5 -204h-279q-2 86 -16 107q-12 14 -59 14h-234q-49 0 -61 -12q-16 -16 -17 -78q0 -66 19 -82q16 -12 74 -20l378 -43q113 -10 160 -58q53 -53 53 -260z" />
<glyph unicode="t" horiz-adv-x="878" d="M799 248v-205l-111 -29q-98 -25 -217 -24q-141 0 -203 61q-51 51 -51 203v627h-174v245h174v281h315v-281h269v-245h-269v-543q0 -61 15 -78q14 -12 82 -12h170z" />
<glyph unicode="u" horiz-adv-x="1282" d="M831 1126h316v-1126h-316v150q-106 -96 -160.5 -124t-131.5 -28h-138q-139 0 -202 63q-35 37 -50.5 94.5t-15.5 176.5v794h316v-759q0 -68 24.5 -92.5t91.5 -24.5h90q72 0 176 45v831z" />
<glyph unicode="v" horiz-adv-x="1187" d="M1159 1126l-356 -1056q-14 -43 -37 -58.5t-70 -15.5h-204q-45 0 -69 15.5t-38 58.5l-356 1056h333l230 -800h22l226 800h319z" />
<glyph unicode="w" horiz-adv-x="1685" d="M43 1126h315l134 -780h20l162 709q8 45 32.5 60t73.5 15h148q47 0 70.5 -15t33.5 -60l166 -709h21l129 780h294l-233 -1054q-12 -45 -34.5 -60.5t-69.5 -15.5h-207q-49 0 -73 16.5t-34 59.5l-139 610h-18l-140 -610q-10 -43 -34.5 -59.5t-71.5 -16.5h-207 q-47 0 -69.5 15.5t-35.5 60.5z" />
<glyph unicode="x" horiz-adv-x="1196" d="M348 0h-328l377 575l-370 551h350l221 -340h18l222 340h329l-372 -557l381 -569h-351l-233 354h-17z" />
<glyph unicode="y" horiz-adv-x="1220" d="M37 1126h342l250 -725h18l207 725h328l-445 -1288q-33 -92 -95 -131t-177 -39t-272 15v237h210q37 0 52 39l20 59z" />
<glyph unicode="z" horiz-adv-x="1130" d="M1047 240v-240h-965v199l565 690h-536v237h940v-190l-572 -696h568z" />
<glyph unicode="{" horiz-adv-x="948" d="M86 485v158q199 18 233 53q27 25 27 70q0 29 -19.5 152.5t-19.5 181.5q0 70 59.5 140.5t249.5 229.5h201q-123 -162 -163 -232.5t-40 -109.5q0 -47 17.5 -170.5t17.5 -162.5q0 -102 -48 -147.5t-202 -82.5v-4q152 -35 201 -83t49 -150q0 -35 -17.5 -161t-17.5 -169 q0 -39 40 -109.5t163 -232.5h-201q-190 160 -249.5 231.5t-59.5 141.5q0 53 19.5 178t19.5 160q0 39 -24 63q-37 37 -236 55z" />
<glyph unicode="|" horiz-adv-x="704" d="M498 -328h-291v1925h291v-1925z" />
<glyph unicode="}" horiz-adv-x="948" d="M862 485q-199 -18 -235 -55q-25 -25 -25 -63q0 -35 19.5 -160t19.5 -178q0 -70 -59.5 -141.5t-249.5 -231.5h-201q123 162 163 232.5t40 109.5q0 43 -17.5 169t-17.5 161q0 102 49 150t201 83v4q-154 37 -202 82t-48 148q0 39 17.5 162.5t17.5 170.5q0 39 -40 110 t-163 232h201q190 -160 249.5 -230.5t59.5 -139.5q0 -57 -19.5 -181t-19.5 -153q0 -45 27 -70q35 -35 233 -53v-158z" />
<glyph unicode="~" horiz-adv-x="888" d="M137 522v129q0 74 29 103q27 27 78 26h30q61 0 168 -41l144 -53l57 94h109v-129q0 -74 -29 -102q-27 -27 -78 -27h-31q-61 0 -168 41l-143 53l-57 -94h-109z" />
<glyph unicode="&#xa1;" horiz-adv-x="679" d="M254 963h154l112 -881v-82h-358v82zM500 1108h-318v326h318v-326z" />
<glyph unicode="&#xa2;" horiz-adv-x="1189" d="M428 174q-156 0 -223 68q-59 59 -81 154.5t-22 326.5t22.5 327.5t80.5 153.5q68 70 223 70h70v184h241v-184h78q135 0 201 -66q76 -76 76 -350h-256q-2 135 -20.5 153.5t-78.5 18.5h-28v-614h30q61 0 80 18q20 20 21 170h256q0 -164 -16.5 -242.5t-59.5 -121.5 q-66 -66 -201 -66h-82v-199h-241v199h-70zM412 436q18 -20 84 -20h28v614h-28q-66 0 -84 -18q-25 -29 -25 -293q0 -258 25 -283z" />
<glyph unicode="&#xa3;" horiz-adv-x="1404" d="M1300 264v-264h-1208v264h170v287h-170v242h170v172q0 168 21.5 256t78.5 143q41 41 103.5 56.5t183.5 15.5h287q106 0 164.5 -14.5t97.5 -53.5q53 -53 72.5 -141t21.5 -260h-307q-2 162 -31 190q-20 20 -100 21h-125q-92 0 -113 -23q-29 -27 -28 -188v-174h416v-242 h-416v-287h712z" />
<glyph unicode="&#xa5;" horiz-adv-x="1417" d="M1225 678v-250h-355v-428h-325v428h-357v250h283l-422 756h357l305 -570h12l303 570h336l-420 -756h283z" />
<glyph unicode="&#xa7;" horiz-adv-x="1394" d="M86 739q0 160 64 222q41 39 137 47q-16 55 -17 127q0 172 76 243q59 57 217 58h295q139 0 195 -52q35 -35 49 -93t16 -183h-280q-2 82 -19 100q-12 14 -61 15h-111q-57 0 -74 -17q-14 -12 -14 -78q0 -55 21 -73q18 -16 79 -21l412 -33q133 -10 180 -61q57 -57 58 -231 q0 -178 -70 -238q-39 -37 -129 -43q14 -63 14 -121q0 -178 -75 -248q-61 -61 -215 -61h-297q-152 0 -207 57q-63 66 -68 277h279q4 -84 20 -103q14 -16 66 -16h114q61 0 78 16q14 14 15 80q0 55 -19 74q-23 18 -88 25l-393 30q-135 10 -187 66q-61 61 -61 235zM362 743.5 q0 -55.5 19 -73.5q18 -14 84 -21l463 -33q23 -2 37 -2q39 0 47 11q18 20 18 71q0 55 -20 74q-18 18 -82 21l-465 34h-19q-53 0 -65 -10q-17 -16 -17 -71.5z" />
<glyph unicode="&#xa8;" horiz-adv-x="1024" d="M133 1260v266h309v-266h-309zM573 1260v266h310v-266h-310z" />
<glyph unicode="&#xa9;" horiz-adv-x="1619" d="M301 106q-135 135 -135 610.5t135 610.5q55 55 127 81t217 26h332q145 0 217 -26t127 -81q135 -135 135 -610t-135 -611q-55 -55 -127 -80.5t-217 -25.5h-332q-145 0 -217 25.5t-127 80.5zM274 717q0 -432 107 -543q39 -43 96.5 -60.5t175.5 -17.5h316q117 0 174 17.5 t96 60.5q109 113 109 543t-109 543q-39 43 -96.5 61t-173.5 18h-316q-119 0 -176 -17t-96 -60q-107 -111 -107 -545zM1143 627q-2 -117 -16.5 -171.5t-45.5 -84.5q-41 -39 -141 -39h-242q-100 0 -141 39q-78 72 -78 356.5t76 355.5q45 39 145 39h240q100 0 141 -39 q59 -59 62 -245h-182q-2 98 -21 120q-10 10 -53 11h-135q-45 0 -54 -11q-25 -25 -24 -231q0 -211 24 -231q10 -12 54 -13h135q41 0 53 13q18 18 21 131h182z" />
<glyph unicode="&#xaa;" horiz-adv-x="1026" d="M860 645h-217v88q-68 -57 -103.5 -73.5t-86.5 -16.5h-113q-96 0 -139 43q-47 47 -47 176q0 147 49 197q55 55 225 55q117 0 215 -24v59q0 90 -12.5 102.5t-55.5 12.5h-122q-35 0 -45 -11q-10 -12 -13 -75h-209q2 166 47 213q43 43 142 43h289q111 0 149 -41 q29 -29 38 -70t9 -139v-539zM160 322v174h700v-174h-700zM487 805q74 0 156 43v125h-143q-100 0 -115 -17q-14 -14 -14 -67q0 -57 14 -70q14 -14 53 -14h49z" />
<glyph unicode="&#xab;" horiz-adv-x="1318" d="M98 477v172l273 291h331l-337 -375l340 -379h-334zM631 477v172l272 291h332l-338 -375l340 -379h-334z" />
<glyph unicode="&#xad;" horiz-adv-x="817" d="M713 530h-607v265h607v-265z" />
<glyph unicode="&#xae;" horiz-adv-x="931" d="M375 692h182q109 0 150 41q55 59 55 299q0 242 -55 297q-43 43 -150 43h-182q-109 0 -148 -43q-57 -53 -57 -297q0 -242 57 -299q39 -41 148 -41zM567 623h-202q-129 0 -193 63q-80 80 -80 346q0 264 80 344q59 63 193 64h202q82 0 122 -15.5t73 -48.5q78 -82 78 -344 q0 -264 -78 -346q-35 -33 -74 -48t-121 -15zM547 1118q0 39 -10 49q-6 6 -31 7h-107v-113h107q23 0 31 6q10 14 10 51zM541 924q0 39 -11 49q-10 8 -45 8h-88v-164h-108v443h264q53 0 74 -21q29 -29 28 -106q0 -59 -16 -83t-57 -28v-2q39 -8 54 -24.5t17 -63.5 q4 -102 6 -115h-110q-8 33 -8 107z" />
<glyph unicode="&#xaf;" horiz-adv-x="1024" d="M160 1260v221h704v-221h-704z" />
<glyph unicode="&#xb0;" horiz-adv-x="878" d="M395 903h88q51 0 68 17q18 18 18 155q0 135 -18 158q-16 16 -68 16h-88q-51 0 -65 -16q-20 -20 -21 -158q0 -139 21 -155q14 -17 65 -17zM772 1075.5q0 -141.5 -17.5 -207t-56.5 -102.5q-49 -49 -157 -49h-201q-106 0 -160 49q-37 37 -54 102.5t-17 207t16 207t55 103.5 q49 47 160 48h201q111 0 157 -48q39 -37 56.5 -103t17.5 -207.5z" />
<glyph unicode="&#xb1;" horiz-adv-x="1058" d="M653 1346v-297h308v-246h-308v-299h-245v299h-310v246h310v297h245zM98 141v244h863v-244h-863z" />
<glyph unicode="&#xb2;" horiz-adv-x="1376" d="M123 0v184q0 170 19.5 255t72.5 149q66 82 225 137l353 119q100 33 120 71q25 39 25 125q0 78 -29 107q-25 25 -127 24h-153q-90 0 -119 -28q-31 -31 -33 -182h-323q2 172 24.5 261t73.5 140q72 72 274 72h400q174 0 245 -72q96 -100 97 -309v-25q-2 -190 -76 -283 q-63 -82 -246 -145l-342 -119q-86 -29 -119 -65q-33 -39 -32 -135v-13h819v-268h-1149z" />
<glyph unicode="&#xb3;" horiz-adv-x="1406" d="M811 612h-274v246h262q72 0 96 23q33 37 33 135q0 104 -33 133q-23 25 -96 25h-209q-84 0 -107 -23q-27 -27 -34 -197h-328q2 299 108 406q74 74 273 74h418q184 0 260 -76q96 -96 96 -293q0 -137 -57.5 -218t-151.5 -108v-4q221 -47 221 -332q0 -219 -104 -323 q-80 -80 -262 -80h-435q-197 0 -272 76q-104 104 -106 432h327q8 -201 33 -223q27 -23 113 -23h225q74 0 98 25q35 31 35 149q0 121 -33 154q-24 22 -96 22z" />
<glyph unicode="&#xb4;" horiz-adv-x="1024" d="M258 1255v11l172 239h418v-10l-352 -240h-238z" />
<glyph unicode="&#xb6;" horiz-adv-x="1253" d="M78 965q0 299 125 411q63 57 243 58h656v-1434h-336v487h-320q-172 0 -237 60q-131 119 -131 418z" />
<glyph unicode="&#xb7;" horiz-adv-x="555" d="M119 821h317v-325h-317v325z" />
<glyph unicode="&#xb8;" horiz-adv-x="1024" d="M588 -53q96 0 127 -31q39 -39 39 -168q0 -115 -39 -154q-33 -33 -133 -32h-222l-131 104v49h271q33 0 41 8.5t8 37t-8.5 36.5t-40.5 8h-94v142h182z" />
<glyph unicode="&#xb9;" horiz-adv-x="860" d="M670 0h-332v1130l-227 -77l-82 241l379 142h262v-1436z" />
<glyph unicode="&#xba;" horiz-adv-x="1081" d="M674 645h-260q-115 0 -166 51q-41 41 -57.5 116t-16.5 228q0 150 16.5 225.5t57.5 116.5q51 51 166 52h260q115 0 166 -52q41 -41 57 -116.5t16 -225.5q0 -154 -16 -228.5t-57 -115.5q-51 -51 -166 -51zM483 827h121q47 0 62 15q20 20 20 200q0 176 -20 197 q-14 14 -62 14h-121q-47 0 -61 -14q-20 -20 -21 -197q0 -180 21 -200q14 -15 61 -15zM172 322v174h743v-174h-743z" />
<glyph unicode="&#xbb;" horiz-adv-x="1318" d="M1223 477l-275 -291h-334l340 379l-338 375h332l275 -291v-172zM690 477l-274 -291h-334l340 379l-338 375h332l274 -291v-172z" />
<glyph unicode="&#xbc;" horiz-adv-x="3526" d="M3232 0h-326v344h-706v125q0 104 55 193l410 663q68 109 182 109h385v-850h225v-240h-225v-344zM2906 1182h-24l-352 -598h376v598zM1108 -6h-228l527 754l469 692h227l-526 -754zM670 0h-332v1130l-227 -77l-82 241l379 142h262v-1436z" />
<glyph unicode="&#xbd;" horiz-adv-x="3500" d="M2247 0v184q0 170 19.5 255t72.5 149q66 82 225 137l353 119q100 33 120 71q25 39 25 125q0 78 -29 107q-25 25 -127 24h-153q-90 0 -119 -28q-31 -31 -33 -182h-323q2 172 24.5 261t73.5 140q72 72 274 72h400q174 0 245 -72q96 -100 97 -309v-25q-2 -190 -76 -283 q-63 -82 -246 -145l-342 -119q-86 -29 -119 -65q-33 -39 -32 -135v-13h819v-268h-1149zM1108 -6h-228l527 754l469 692h227l-526 -754zM670 0h-332v1130l-227 -77l-82 241l379 142h262v-1436z" />
<glyph unicode="&#xbe;" horiz-adv-x="4073" d="M3779 0h-326v344h-706v125q0 104 55 193l410 663q68 109 182 109h385v-850h225v-240h-225v-344zM3453 1182h-24l-352 -598h376v598zM1655 -6h-228l527 754l469 692h227l-526 -754zM811 612h-274v246h262q72 0 96 23q33 37 33 135q0 104 -33 133q-23 25 -96 25h-209 q-84 0 -107 -23q-27 -27 -34 -197h-328q2 299 108 406q74 74 273 74h418q184 0 260 -76q96 -96 96 -293q0 -137 -57.5 -218t-151.5 -108v-4q221 -47 221 -332q0 -219 -104 -323q-80 -80 -262 -80h-435q-197 0 -272 76q-104 104 -106 432h327q8 -201 33 -223q27 -23 113 -23 h225q74 0 98 25q35 31 35 149q0 121 -33 154q-24 22 -96 22z" />
<glyph unicode="&#xbf;" horiz-adv-x="1169" d="M1096 471q0 -186 -18.5 -273t-63.5 -132q-63 -66 -242 -66h-375q-162 0 -225 70q-82 80 -82 319v12q2 121 19.5 179.5t72.5 107.5q37 33 226 117q68 33 88 57q27 25 34 101h244v-50q-2 -111 -11 -157.5t-40 -77.5q-43 -43 -170 -98q-98 -45 -117 -66q-27 -25 -26 -123 q0 -94 20 -115q14 -16 84 -16h162q70 0 88 19q23 23 24 192h308zM811 1108h-317v326h317v-326z" />
<glyph unicode="&#xc0;" horiz-adv-x="1449" d="M1069 0l-108 356h-494l-107 -356h-333l444 1346q20 59 40.5 76.5t76.5 17.5h276q53 0 75 -17.5t42 -76.5l444 -1346h-356zM700 1139l-159 -533h346l-160 533h-27zM872 1552h-237l-354 240v10h417l174 -239v-11z" />
<glyph unicode="&#xc1;" horiz-adv-x="1449" d="M1069 0l-108 356h-494l-107 -356h-333l444 1346q20 59 40.5 76.5t76.5 17.5h276q53 0 75 -17.5t42 -76.5l444 -1346h-356zM700 1139l-159 -533h346l-160 533h-27zM573 1552v11l172 239h418v-10l-352 -240h-238z" />
<glyph unicode="&#xc2;" horiz-adv-x="1449" d="M1069 0l-108 356h-494l-107 -356h-333l444 1346q20 59 40.5 76.5t76.5 17.5h276q53 0 75 -17.5t42 -76.5l444 -1346h-356zM852 1552l-131 103l-131 -103h-256v11l246 249h288l248 -249v-11h-264zM700 1139l-159 -533h346l-160 533h-27z" />
<glyph unicode="&#xc3;" horiz-adv-x="1449" d="M1069 0l-108 356h-494l-107 -356h-333l444 1346q20 59 40.5 76.5t76.5 17.5h276q53 0 75 -17.5t42 -76.5l444 -1346h-356zM365 1559v127q0 86 34 120q29 33 95 33h45q51 0 137 -27l192 -57l47 82h166v-129q0 -88 -32 -121q-35 -31 -95 -31h-45q-59 0 -139 27l-190 55 l-48 -79h-167zM700 1139l-159 -533h346l-160 533h-27z" />
<glyph unicode="&#xc4;" horiz-adv-x="1449" d="M1069 0l-108 356h-494l-107 -356h-333l444 1346q20 59 40.5 76.5t76.5 17.5h276q53 0 75 -17.5t42 -76.5l444 -1346h-356zM700 1139l-159 -533h346l-160 533h-27zM348 1556v267h309v-267h-309zM788 1556v267h310v-267h-310z" />
<glyph unicode="&#xc5;" horiz-adv-x="1449" d="M1069 0l-108 356h-494l-107 -356h-333l428 1294q8 31 24 54q-2 0 -2 2q-55 49 -55 178q0 125 55 178q43 39 133 39h230q92 0 135 -39q55 -55 55 -178q0 -125 -55 -178l-2 -2q14 -25 24 -54l428 -1294h-356zM700 1139l-159 -533h346l-160 533h-27zM776 1597h-102 q-41 0 -51 -10q-14 -14 -15 -59q0 -47 15 -60q12 -12 51 -12h102q41 0 53 12q14 14 15 60q0 41 -15 59q-10 10 -53 10z" />
<glyph unicode="&#xc6;" horiz-adv-x="2129" d="M961 0v397h-431l-204 -397h-342l714 1337q35 59 59.5 78t80.5 19h1198v-265h-742v-307h578v-252h-578v-346h742v-264h-1075zM940 1188l-276 -533h297v533h-21z" />
<glyph unicode="&#xc7;" horiz-adv-x="1398" d="M1323 535q-6 -211 -31.5 -310.5t-85.5 -154.5q-72 -70 -258 -70h-438q-186 0 -258 70q-70 66 -105.5 205t-35.5 442q0 305 35.5 443t105.5 204q72 70 258 70h438q186 0 258 -70q59 -55 86 -153.5t29 -295.5h-320q-6 199 -40 234q-20 20 -99 20h-266q-78 0 -98 -20 q-45 -41 -45 -432q0 -387 45 -432q23 -18 98 -19h266h12q63 0 87 19q35 35 40 250h322zM799 -53q96 0 127 -31q39 -39 39 -168q0 -115 -39 -154q-33 -33 -133 -32h-222l-131 104v49h271q33 0 41 8.5t8 37t-8.5 36.5t-40.5 8h-95v142h183z" />
<glyph unicode="&#xc8;" horiz-adv-x="1323" d="M1229 264v-264h-1075v1434h1075v-265h-742v-307h578v-252h-578v-346h742zM842 1552h-238l-354 240v10h418l174 -239v-11z" />
<glyph unicode="&#xc9;" horiz-adv-x="1323" d="M543 1552v11l172 239h418v-10l-353 -240h-237zM1229 264v-264h-1075v1434h1075v-265h-742v-307h578v-252h-578v-346h742z" />
<glyph unicode="&#xca;" horiz-adv-x="1323" d="M1229 264v-264h-1075v1434h1075v-265h-742v-307h578v-252h-578v-346h742zM821 1552l-131 103l-131 -103h-256v11l246 249h289l247 -249v-11h-264z" />
<glyph unicode="&#xcb;" horiz-adv-x="1323" d="M317 1556v267h310v-267h-310zM758 1556v267h309v-267h-309zM1229 264v-264h-1075v1434h1075v-265h-742v-307h578v-252h-578v-346h742z" />
<glyph unicode="&#xcc;" horiz-adv-x="659" d="M498 0h-336v1434h336v-1434zM479 1552h-237l-355 240v10h418l174 -239v-11z" />
<glyph unicode="&#xcd;" horiz-adv-x="659" d="M498 0h-336v1434h336v-1434zM180 1552v11l172 239h418v-10l-352 -240h-238z" />
<glyph unicode="&#xce;" horiz-adv-x="659" d="M498 0h-336v1434h336v-1434zM459 1552l-131 103l-131 -103h-256v11l245 249h289l248 -249v-11h-264z" />
<glyph unicode="&#xcf;" horiz-adv-x="659" d="M498 0h-336v1434h336v-1434zM-45 1556v267h309v-267h-309zM395 1556v267h310v-267h-310z" />
<glyph unicode="&#xd0;" horiz-adv-x="1497" d="M174 1434h680q152 0 242 -26t151 -85q74 -72 109 -209t35 -397q0 -258 -35 -396.5t-109 -209.5q-61 -59 -151 -85t-242 -26h-680v602h-172v250h172v582zM1047 717q0 215 -13.5 301t-46.5 117q-41 39 -166 39h-313v-322h262v-250h-262v-342h313q125 0 166 41 q33 29 46.5 116t13.5 300z" />
<glyph unicode="&#xd1;" horiz-adv-x="1556" d="M1405 1434v-1434h-270q-57 0 -88 18.5t-60 67.5l-493 885h-21v-971h-319v1434h313q59 0 90 -17.5t57 -68.5l451 -818h20v904h320zM420 1559v127q0 86 35 120q29 33 94 33h45q51 0 137 -27l193 -57l47 82h166v-129q0 -88 -33 -121q-35 -31 -94 -31h-45q-59 0 -140 27 l-190 55l-47 -79h-168z" />
<glyph unicode="&#xd2;" horiz-adv-x="1468" d="M512 1434h444q186 0 258 -70q70 -66 106 -204t36 -443q0 -303 -36 -442.5t-106 -204.5q-72 -70 -258 -70h-444q-186 0 -258 70q-70 66 -105.5 205t-35.5 442q0 305 35.5 443t105.5 204q72 70 258 70zM455 717q0 -387 45 -432q20 -18 98 -19h272h13q63 0 86 19 q45 45 45 432q0 391 -45 432q-20 20 -99 20h-272q-78 0 -98 -20q-45 -41 -45 -432zM883 1552h-238l-354 240v10h418l174 -239v-11z" />
<glyph unicode="&#xd3;" horiz-adv-x="1468" d="M584 1552v11l172 239h418v-10l-353 -240h-237zM512 1434h444q186 0 258 -70q70 -66 106 -204t36 -443q0 -303 -36 -442.5t-106 -204.5q-72 -70 -258 -70h-444q-186 0 -258 70q-70 66 -105.5 205t-35.5 442q0 305 35.5 443t105.5 204q72 70 258 70zM455 717 q0 -387 45 -432q20 -18 98 -19h272h13q63 0 86 19q45 45 45 432q0 391 -45 432q-20 20 -99 20h-272q-78 0 -98 -20q-45 -41 -45 -432z" />
<glyph unicode="&#xd4;" horiz-adv-x="1468" d="M512 1434h444q186 0 258 -70q70 -66 106 -204t36 -443q0 -303 -36 -442.5t-106 -204.5q-72 -70 -258 -70h-444q-186 0 -258 70q-70 66 -105.5 205t-35.5 442q0 305 35.5 443t105.5 204q72 70 258 70zM455 717q0 -387 45 -432q20 -18 98 -19h272h13q63 0 86 19 q45 45 45 432q0 391 -45 432q-20 20 -99 20h-272q-78 0 -98 -20q-45 -41 -45 -432zM862 1552l-131 103l-131 -103h-256v11l246 249h289l247 -249v-11h-264z" />
<glyph unicode="&#xd5;" horiz-adv-x="1468" d="M512 1434h444q186 0 258 -70q70 -66 106 -204t36 -443q0 -303 -36 -442.5t-106 -204.5q-72 -70 -258 -70h-444q-186 0 -258 70q-70 66 -105.5 205t-35.5 442q0 305 35.5 443t105.5 204q72 70 258 70zM455 717q0 -387 45 -432q20 -18 98 -19h272h13q63 0 86 19 q45 45 45 432q0 391 -45 432q-20 20 -99 20h-272q-78 0 -98 -20q-45 -41 -45 -432zM377 1559v127q0 86 35 120q29 33 94 33h45q51 0 137 -27l193 -57l47 82h166v-129q0 -88 -33 -121q-35 -31 -94 -31h-45q-59 0 -140 27l-190 55l-47 -79h-168z" />
<glyph unicode="&#xd6;" horiz-adv-x="1468" d="M358 1556v267h310v-267h-310zM799 1556v267h309v-267h-309zM512 1434h444q186 0 258 -70q70 -66 106 -204t36 -443q0 -303 -36 -442.5t-106 -204.5q-72 -70 -258 -70h-444q-186 0 -258 70q-70 66 -105.5 205t-35.5 442q0 305 35.5 443t105.5 204q72 70 258 70zM455 717 q0 -387 45 -432q20 -18 98 -19h272h13q63 0 86 19q45 45 45 432q0 391 -45 432q-20 20 -99 20h-272q-78 0 -98 -20q-45 -41 -45 -432z" />
<glyph unicode="&#xd7;" horiz-adv-x="1058" d="M289 1157l241 -239l240 239l174 -172l-242 -242l242 -239l-174 -174l-240 241l-241 -241l-172 174l239 239l-239 242z" />
<glyph unicode="&#xd8;" horiz-adv-x="1468" d="M512 1434h428l51 108h275l-76 -158l24 -20q70 -66 106 -204t36 -443q0 -303 -36 -442.5t-106 -204.5q-72 -70 -258 -70h-428l-51 -109h-274l73 158q-16 12 -22 21q-70 66 -105.5 205t-35.5 442q0 305 35.5 443t105.5 204q72 70 258 70zM1014 717q0 199 -13 321l-356 -772 h225h13q63 0 86 19q45 45 45 432zM455 717q0 -225 12 -322l356 774h-225q-78 0 -98 -20q-45 -41 -45 -432z" />
<glyph unicode="&#xd9;" horiz-adv-x="1519" d="M1368 1434v-848q0 -240 -25.5 -339.5t-87.5 -160.5q-49 -49 -124.5 -67.5t-217.5 -18.5h-311q-139 0 -215 18.5t-123 65.5q-61 63 -85.5 161.5t-24.5 340.5v848h333v-871q0 -211 39 -250q29 -29 170 -28h133q137 0 166 28q20 20 28.5 65.5t8.5 184.5v871h336zM909 1552 h-237l-355 240v10h418l174 -239v-11z" />
<glyph unicode="&#xda;" horiz-adv-x="1519" d="M610 1552v11l172 239h418v-10l-352 -240h-238zM1368 1434v-848q0 -240 -25.5 -339.5t-87.5 -160.5q-49 -49 -124.5 -67.5t-217.5 -18.5h-311q-139 0 -215 18.5t-123 65.5q-61 63 -85.5 161.5t-24.5 340.5v848h333v-871q0 -211 39 -250q29 -29 170 -28h133q137 0 166 28 q20 20 28.5 65.5t8.5 184.5v871h336z" />
<glyph unicode="&#xdb;" horiz-adv-x="1519" d="M1368 1434v-848q0 -240 -25.5 -339.5t-87.5 -160.5q-49 -49 -124.5 -67.5t-217.5 -18.5h-311q-139 0 -215 18.5t-123 65.5q-61 63 -85.5 161.5t-24.5 340.5v848h333v-871q0 -211 39 -250q29 -29 170 -28h133q137 0 166 28q20 20 28.5 65.5t8.5 184.5v871h336zM889 1552 l-131 103l-131 -103h-256v11l245 249h289l248 -249v-11h-264z" />
<glyph unicode="&#xdc;" horiz-adv-x="1519" d="M385 1556v267h309v-267h-309zM825 1556v267h310v-267h-310zM1368 1434v-848q0 -240 -25.5 -339.5t-87.5 -160.5q-49 -49 -124.5 -67.5t-217.5 -18.5h-311q-139 0 -215 18.5t-123 65.5q-61 63 -85.5 161.5t-24.5 340.5v848h333v-871q0 -211 39 -250q29 -29 170 -28h133 q137 0 166 28q20 20 28.5 65.5t8.5 184.5v871h336z" />
<glyph unicode="&#xdd;" horiz-adv-x="1359" d="M1352 1434l-508 -908v-526h-324v524l-512 910h357l317 -592h12l318 592h340zM532 1552v11l173 239h417v-10l-352 -240h-238z" />
<glyph unicode="&#xde;" horiz-adv-x="1376" d="M487 506h324q94 0 113 16q41 37 41 197q0 156 -41 192q-23 18 -113 19h-324v-424zM487 1434v-244h455q178 0 244 -57q57 -53 90 -144.5t33 -273.5q0 -301 -123 -412q-68 -59 -244 -59h-455v-244h-333v1434h333z" />
<glyph unicode="&#xdf;" horiz-adv-x="1349" d="M219 0v881h-156v245h156v52q0 182 80 262q70 72 219 71h359q170 0 235 -67q84 -86 84 -297q0 -154 -46 -224.5t-151 -99.5v-4q141 -18 199.5 -98t58.5 -279q0 -154 -22.5 -235.5t-71.5 -130.5q-76 -76 -250 -76h-260v254h144q78 0 98 20q29 29 29 207q0 170 -29 195 q-20 20 -82 20h-147v242h92q63 0 82 16q25 29 24 146q0 115 -24 139q-20 20 -80 21h-129q-51 0 -72 -21q-25 -23 -24 -113v-1126h-316z" />
<glyph unicode="&#xe0;" d="M143 768q2 133 17.5 196.5t52.5 98.5q63 63 201 63h409q162 0 224 -63q39 -39 53 -100.5t14 -200.5v-762h-313v129q-100 -82 -154.5 -106.5t-130.5 -24.5h-154q-141 0 -198 57q-66 66 -66 252q0 205 70 275q41 41 107.5 58t211.5 17q166 0 314 -32v100q0 127 -21 149 q-18 16 -82 17h-159q-61 0 -78 -16.5t-23 -106.5h-295zM590 221q96 0 211 60v188h-207q-139 0 -168 -29q-25 -25 -25 -96q0 -84 21 -104q18 -18 80 -19h88zM793 1255h-238l-354 240v10h417l175 -239v-11z" />
<glyph unicode="&#xe1;" d="M143 768q2 133 17.5 196.5t52.5 98.5q63 63 201 63h409q162 0 224 -63q39 -39 53 -100.5t14 -200.5v-762h-313v129q-100 -82 -154.5 -106.5t-130.5 -24.5h-154q-141 0 -198 57q-66 66 -66 252q0 205 70 275q41 41 107.5 58t211.5 17q166 0 314 -32v100q0 127 -21 149 q-18 16 -82 17h-159q-61 0 -78 -16.5t-23 -106.5h-295zM590 221q96 0 211 60v188h-207q-139 0 -168 -29q-25 -25 -25 -96q0 -84 21 -104q18 -18 80 -19h88zM494 1255v11l172 239h417v-10l-352 -240h-237z" />
<glyph unicode="&#xe2;" d="M143 768q2 133 17.5 196.5t52.5 98.5q63 63 201 63h409q162 0 224 -63q39 -39 53 -100.5t14 -200.5v-762h-313v129q-100 -82 -154.5 -106.5t-130.5 -24.5h-154q-141 0 -198 57q-66 66 -66 252q0 205 70 275q41 41 107.5 58t211.5 17q166 0 314 -32v100q0 127 -21 149 q-18 16 -82 17h-159q-61 0 -78 -16.5t-23 -106.5h-295zM772 1255l-131 103l-131 -103h-256v11l246 250h288l248 -250v-11h-264zM590 221q96 0 211 60v188h-207q-139 0 -168 -29q-25 -25 -25 -96q0 -84 21 -104q18 -18 80 -19h88z" />
<glyph unicode="&#xe3;" d="M143 768q2 133 17.5 196.5t52.5 98.5q63 63 201 63h409q162 0 224 -63q39 -39 53 -100.5t14 -200.5v-762h-313v129q-100 -82 -154.5 -106.5t-130.5 -24.5h-154q-141 0 -198 57q-66 66 -66 252q0 205 70 275q41 41 107.5 58t211.5 17q166 0 314 -32v100q0 127 -21 149 q-18 16 -82 17h-159q-61 0 -78 -16.5t-23 -106.5h-295zM285 1262v127q0 86 34 120q29 33 95 33h45q51 0 137 -26l192 -58l48 82h165v-129q0 -88 -32 -121q-35 -31 -95 -30h-45q-59 0 -139 26l-190 55l-47 -79h-168zM590 221q96 0 211 60v188h-207q-139 0 -168 -29 q-25 -25 -25 -96q0 -84 21 -104q18 -18 80 -19h88z" />
<glyph unicode="&#xe4;" d="M143 768q2 133 17.5 196.5t52.5 98.5q63 63 201 63h409q162 0 224 -63q39 -39 53 -100.5t14 -200.5v-762h-313v129q-100 -82 -154.5 -106.5t-130.5 -24.5h-154q-141 0 -198 57q-66 66 -66 252q0 205 70 275q41 41 107.5 58t211.5 17q166 0 314 -32v100q0 127 -21 149 q-18 16 -82 17h-159q-61 0 -78 -16.5t-23 -106.5h-295zM590 221q96 0 211 60v188h-207q-139 0 -168 -29q-25 -25 -25 -96q0 -84 21 -104q18 -18 80 -19h88zM268 1260v266h310v-266h-310zM709 1260v266h309v-266h-309z" />
<glyph unicode="&#xe5;" d="M143 768q2 133 17.5 196.5t52.5 98.5q63 63 201 63h409q162 0 224 -63q39 -39 53 -100.5t14 -200.5v-762h-313v129q-100 -82 -154.5 -106.5t-130.5 -24.5h-154q-141 0 -198 57q-66 66 -66 252q0 205 70 275q41 41 107.5 58t211.5 17q166 0 314 -32v100q0 127 -21 149 q-18 16 -82 17h-159q-61 0 -78 -16.5t-23 -106.5h-295zM756 1249h-230q-92 0 -133 41q-55 49 -55 178q0 125 55 179q43 39 133 39h230q92 0 135 -39q55 -55 55 -179q0 -125 -55 -178q-41 -41 -135 -41zM590 221q96 0 211 60v188h-207q-139 0 -168 -29q-25 -25 -25 -96 q0 -84 21 -104q18 -18 80 -19h88zM692 1538h-102q-41 0 -51 -10q-14 -14 -15 -60q0 -47 15 -59q12 -12 51 -12h102q41 0 53 12q14 14 15 59q0 41 -15 60q-10 10 -53 10z" />
<glyph unicode="&#xe6;" horiz-adv-x="1927" d="M487 657q166 0 314 -32v100q0 127 -21 149q-18 16 -82 17h-157q-61 0 -78 -16.5t-23 -106.5h-297q2 137 16.5 198.5t51.5 96.5q63 63 201 63h344q150 0 215 -86q72 86 217 86h321q160 0 226 -67q55 -55 72.5 -149.5t17.5 -336.5v-38q0 -25 -9.5 -35.5t-35.5 -10.5h-670 q2 -213 27 -237q18 -20 98 -21h192q72 0 91 21q16 16 18 123h289q-2 -236 -76 -309q-66 -66 -201 -66h-415q-156 0 -224 70q-47 47 -65 94q-125 -106 -184.5 -136t-143.5 -30h-154q-141 0 -198 57q-66 66 -66 254q0 205 70 273q41 41 107.5 58t211.5 17zM590 221 q96 0 225 68q-12 90 -14 180h-207q-139 0 -168 -27q-25 -25 -25 -96q0 -86 21 -106q18 -18 80 -19h88zM1135 874q-23 -23 -25 -208h414q0 182 -25 211q-18 18 -92 18h-172q-82 -1 -100 -21z" />
<glyph unicode="&#xe7;" horiz-adv-x="1185" d="M801 430h291q0 -168 -15.5 -243.5t-60.5 -120.5q-63 -66 -205 -66h-379q-156 0 -223 70q-57 57 -80 159.5t-23 334t23 333.5t80 162q66 68 223 67h377q143 0 205 -63q45 -45 61 -121q14 -66 15 -197v-32h-291q-4 131 -21 147q-16 18 -73 19h-179q-66 0 -82 -19 q-27 -31 -26 -297q0 -268 26 -295q14 -20 82 -20h181q57 0 75 18q17 17 19 164zM666 -53q96 0 127 -31q39 -39 38 -168q0 -115 -38 -154q-33 -33 -134 -32h-221l-131 104v49h271q33 0 41 8.5t8 37t-8.5 36.5t-40.5 8h-95v142h183z" />
<glyph unicode="&#xe8;" horiz-adv-x="1230" d="M1081 492h-669q2 -211 26 -240q18 -20 101 -21h190q74 0 92 21q14 16 17 123h288q-2 -236 -75 -309q-66 -66 -201 -66h-418q-156 0 -223 70q-57 57 -80 155.5t-23 338t23 337.5t80 158q66 68 223 67h381q158 0 223 -67q55 -55 72.5 -149.5t17.5 -336.5v-36q0 -25 -9 -35 t-36 -10zM438 874q-25 -25 -26 -206h415q0 180 -24 209q-18 18 -94 18h-170q-83 -1 -101 -21zM776 1255h-237l-355 240v10h418l174 -239v-11z" />
<glyph unicode="&#xe9;" horiz-adv-x="1230" d="M1081 492h-669q2 -211 26 -240q18 -20 101 -21h190q74 0 92 21q14 16 17 123h288q-2 -236 -75 -309q-66 -66 -201 -66h-418q-156 0 -223 70q-57 57 -80 155.5t-23 338t23 337.5t80 158q66 68 223 67h381q158 0 223 -67q55 -55 72.5 -149.5t17.5 -336.5v-36q0 -25 -9 -35 t-36 -10zM438 874q-25 -25 -26 -206h415q0 180 -24 209q-18 18 -94 18h-170q-83 -1 -101 -21zM475 1255v11l172 239h418v-10l-352 -240h-238z" />
<glyph unicode="&#xea;" horiz-adv-x="1230" d="M1081 492h-669q2 -211 26 -240q18 -20 101 -21h190q74 0 92 21q14 16 17 123h288q-2 -236 -75 -309q-66 -66 -201 -66h-418q-156 0 -223 70q-57 57 -80 155.5t-23 338t23 337.5t80 158q66 68 223 67h381q158 0 223 -67q55 -55 72.5 -149.5t17.5 -336.5v-36q0 -25 -9 -35 t-36 -10zM754 1255l-131 103l-131 -103h-256v11l245 250h289l248 -250v-11h-264zM438 874q-25 -25 -26 -206h415q0 180 -24 209q-18 18 -94 18h-170q-83 -1 -101 -21z" />
<glyph unicode="&#xeb;" horiz-adv-x="1230" d="M1081 492h-669q2 -211 26 -240q18 -20 101 -21h190q74 0 92 21q14 16 17 123h288q-2 -236 -75 -309q-66 -66 -201 -66h-418q-156 0 -223 70q-57 57 -80 155.5t-23 338t23 337.5t80 158q66 68 223 67h381q158 0 223 -67q55 -55 72.5 -149.5t17.5 -336.5v-36q0 -25 -9 -35 t-36 -10zM438 874q-25 -25 -26 -206h415q0 180 -24 209q-18 18 -94 18h-170q-83 -1 -101 -21zM690 1260v266h309v-266h-309zM250 1260v266h309v-266h-309z" />
<glyph unicode="&#xec;" horiz-adv-x="589" d="M451 1126v-1126h-310v1126h310zM446 1255h-237l-354 240v10h417l174 -239v-11z" />
<glyph unicode="&#xed;" horiz-adv-x="589" d="M147 1255v11l172 239h418v-10l-352 -240h-238zM451 1126v-1126h-310v1126h310z" />
<glyph unicode="&#xee;" horiz-adv-x="589" d="M451 1126v-1126h-310v1126h310zM426 1255l-131 103l-131 -103h-256v11l246 250h288l248 -250v-11h-264z" />
<glyph unicode="&#xef;" horiz-adv-x="589" d="M-78 1260v266h309v-266h-309zM362 1260v266h310v-266h-310zM451 1126v-1126h-310v1126h310z" />
<glyph unicode="&#xf0;" horiz-adv-x="1234" d="M424 1311l194 55l-100 145h244l78 -79l293 84v-209l-142 -41q84 -98 111 -170q31 -84 31 -523q0 -240 -20.5 -341t-80.5 -162q-68 -70 -225 -70h-385q-158 0 -225 70q-55 55 -78 149t-23 289q0 193 22.5 287t78.5 151q68 68 225 68h113q76 0 131 -23.5t153 -101.5 q-4 125 -22 190q-10 37 -60 115l-313 -90v207zM797 264q25 27 24 309v148q-100 49 -180 49h-125q-66 0 -84 -18q-25 -27 -24.5 -244t24.5 -244q18 -18 84 -18h197q66 0 84 18z" />
<glyph unicode="&#xf1;" horiz-adv-x="1282" d="M451 0h-314v1126h314v-149q109 96 162 123.5t132 27.5h138q137 0 200 -63q37 -35 51.5 -92.5t14.5 -177.5v-795h-313v758q0 66 -25 92q-25 25 -94 24h-88q-76 0 -178 -47v-827zM287 1262v127q0 86 35 120q29 33 94 33h45q51 0 137 -26l193 -58l47 82h166v-129 q0 -88 -33 -121q-35 -31 -94 -30h-46q-59 0 -139 26l-190 55l-47 -79h-168z" />
<glyph unicode="&#xf2;" d="M432 0q-156 0 -223 70q-57 57 -80 159.5t-23 334t23 333.5t80 162q66 68 223 67h383q156 0 223 -67q57 -59 80 -161.5t23 -334t-22.5 -334t-80.5 -159.5q-68 -70 -223 -70h-383zM418 563q0 -268 26 -295q14 -20 82 -20h195q63 0 82 20q27 27 26 295q0 266 -26 297 q-16 18 -82 19h-195q-66 0 -82 -19q-26 -31 -26 -297zM774 1255h-237l-355 240v10h418l174 -239v-11z" />
<glyph unicode="&#xf3;" d="M473 1255v11l172 239h418v-10l-352 -240h-238zM432 0q-156 0 -223 70q-57 57 -80 159.5t-23 334t23 333.5t80 162q66 68 223 67h383q156 0 223 -67q57 -59 80 -161.5t23 -334t-22.5 -334t-80.5 -159.5q-68 -70 -223 -70h-383zM418 563q0 -268 26 -295q14 -20 82 -20h195 q63 0 82 20q27 27 26 295q0 266 -26 297q-16 18 -82 19h-195q-66 0 -82 -19q-26 -31 -26 -297z" />
<glyph unicode="&#xf4;" d="M432 0q-156 0 -223 70q-57 57 -80 159.5t-23 334t23 333.5t80 162q66 68 223 67h383q156 0 223 -67q57 -59 80 -161.5t23 -334t-22.5 -334t-80.5 -159.5q-68 -70 -223 -70h-383zM418 563q0 -268 26 -295q14 -20 82 -20h195q63 0 82 20q27 27 26 295q0 266 -26 297 q-16 18 -82 19h-195q-66 0 -82 -19q-26 -31 -26 -297zM752 1255l-131 103l-132 -103h-256v11l246 250h289l248 -250v-11h-264z" />
<glyph unicode="&#xf5;" d="M432 0q-156 0 -223 70q-57 57 -80 159.5t-23 334t23 333.5t80 162q66 68 223 67h383q156 0 223 -67q57 -59 80 -161.5t23 -334t-22.5 -334t-80.5 -159.5q-68 -70 -223 -70h-383zM418 563q0 -268 26 -295q14 -20 82 -20h195q63 0 82 20q27 27 26 295q0 266 -26 297 q-16 18 -82 19h-195q-66 0 -82 -19q-26 -31 -26 -297zM266 1262v127q0 86 35 120q29 33 94 33h45q51 0 138 -26l192 -58l47 82h166v-129q0 -88 -33 -121q-35 -31 -94 -30h-45q-59 0 -139 26l-191 55l-47 -79h-168z" />
<glyph unicode="&#xf6;" d="M248 1260v266h309v-266h-309zM688 1260v266h309v-266h-309zM432 0q-156 0 -223 70q-57 57 -80 159.5t-23 334t23 333.5t80 162q66 68 223 67h383q156 0 223 -67q57 -59 80 -161.5t23 -334t-22.5 -334t-80.5 -159.5q-68 -70 -223 -70h-383zM418 563q0 -268 26 -295 q14 -20 82 -20h195q63 0 82 20q27 27 26 295q0 266 -26 297q-16 18 -82 19h-195q-66 0 -82 -19q-26 -31 -26 -297z" />
<glyph unicode="&#xf7;" horiz-adv-x="1058" d="M98 625v237h863v-237h-863zM387 266v260h287v-260h-287zM387 965v262h287v-262h-287z" />
<glyph unicode="&#xf8;" horiz-adv-x="1251" d="M1114 1229l-86 -160q4 -2 12 -10q57 -59 80 -161.5t23 -334t-22.5 -334t-80.5 -159.5q-68 -70 -223 -70h-362l-54 -102h-264l86 159l-12 13q-57 57 -79.5 159.5t-22.5 334t22.5 333.5t79.5 162q66 68 223 67h363l55 103h262zM410 563q0 -158 6 -221l268 537h-166 q-66 0 -82 -19q-26 -31 -26 -297zM842 563q0 154 -6 219l-269 -534h166q63 0 82 20q27 27 27 295z" />
<glyph unicode="&#xf9;" horiz-adv-x="1282" d="M831 1126h316v-1126h-316v150q-106 -96 -160.5 -124t-131.5 -28h-138q-139 0 -202 63q-35 37 -50.5 94.5t-15.5 176.5v794h316v-759q0 -68 24.5 -92.5t91.5 -24.5h90q72 0 176 45v831zM793 1255h-238l-354 240v10h417l175 -239v-11z" />
<glyph unicode="&#xfa;" horiz-adv-x="1282" d="M831 1126h316v-1126h-316v150q-106 -96 -160.5 -124t-131.5 -28h-138q-139 0 -202 63q-35 37 -50.5 94.5t-15.5 176.5v794h316v-759q0 -68 24.5 -92.5t91.5 -24.5h90q72 0 176 45v831zM494 1255v11l172 239h417v-10l-352 -240h-237z" />
<glyph unicode="&#xfb;" horiz-adv-x="1282" d="M831 1126h316v-1126h-316v150q-106 -96 -160.5 -124t-131.5 -28h-138q-139 0 -202 63q-35 37 -50.5 94.5t-15.5 176.5v794h316v-759q0 -68 24.5 -92.5t91.5 -24.5h90q72 0 176 45v831zM772 1255l-131 103l-131 -103h-256v11l246 250h288l248 -250v-11h-264z" />
<glyph unicode="&#xfc;" horiz-adv-x="1282" d="M831 1126h316v-1126h-316v150q-106 -96 -160.5 -124t-131.5 -28h-138q-139 0 -202 63q-35 37 -50.5 94.5t-15.5 176.5v794h316v-759q0 -68 24.5 -92.5t91.5 -24.5h90q72 0 176 45v831zM709 1260v266h309v-266h-309zM268 1260v266h310v-266h-310z" />
<glyph unicode="&#xfd;" horiz-adv-x="1220" d="M37 1126h342l250 -725h18l207 725h328l-445 -1288q-33 -92 -95 -131t-177 -39t-272 15v237h210q37 0 52 39l20 59zM477 1255v11l172 239h418v-10l-352 -240h-238z" />
<glyph unicode="&#xfe;" horiz-adv-x="1284" d="M137 -328v1839h314v-530q106 92 159.5 119.5t122.5 27.5h119q164 0 233 -69q51 -51 72 -153.5t21 -342.5q0 -236 -24 -338t-77 -155q-72 -72 -229 -72h-123q-74 0 -128 24.5t-146 104.5v-455h-314zM621 879q-70 0 -170 -48v-538q92 -43 167 -43h111q78 0 102 24 q20 23 27.5 78.5t7.5 210.5q0 158 -7 213t-28 76q-27 27 -102 27h-108z" />
<glyph unicode="&#xff;" horiz-adv-x="1220" d="M37 1126h342l250 -725h18l207 725h328l-445 -1288q-33 -92 -95 -131t-177 -39t-272 15v237h210q37 0 52 39l20 59zM692 1260v266h309v-266h-309zM252 1260v266h309v-266h-309z" />
<glyph unicode="&#x152;" horiz-adv-x="2158" d="M2064 0h-1421q-150 0 -240 25.5t-153 85.5q-74 72 -107.5 209t-33.5 397t33.5 397t107.5 209q63 59 153.5 85t239.5 26h1421v-265h-739v-307h576v-252h-576v-346h739v-264zM451 717q0 -211 14 -298t45 -118q41 -41 168 -41h311v914h-311q-127 0 -168 -39 q-33 -31 -46 -117t-13 -301z" />
<glyph unicode="&#x153;" horiz-adv-x="1941" d="M754 0h-336q-156 0 -223 70q-57 57 -80 159.5t-23 334t22.5 333.5t80.5 162q66 68 223 67h336q143 0 211 -77l10 -15l12 15q68 78 211 77h326q158 0 223 -67q55 -55 72.5 -149.5t17.5 -336.5v-36q0 -25 -9 -35t-36 -10h-670q2 -211 27 -240q18 -20 100 -21h191 q74 0 92 21q14 16 16 123h289q-2 -236 -76 -309q-66 -66 -200 -66h-363q-143 0 -211 80l-12 12l-10 -12q-68 -80 -211 -80zM403 563q0 -268 27 -295q16 -20 82 -20h195q63 0 81 20q27 27 27 295q0 266 -27 297q-16 18 -81 19h-195q-66 0 -82 -19q-27 -31 -27 -297zM1149 874 q-25 -25 -27 -206h416q0 180 -25 209q-18 18 -94 18h-170q-82 -1 -100 -21z" />
<glyph unicode="&#x178;" horiz-adv-x="1359" d="M1352 1434l-508 -908v-526h-324v524l-512 910h357l317 -592h12l318 592h340zM307 1556v267h309v-267h-309zM748 1556v267h309v-267h-309z" />
<glyph unicode="&#x2c6;" horiz-adv-x="1024" d="M639 1255l-131 103l-131 -103h-256v11l246 250h288l248 -250v-11h-264z" />
<glyph unicode="&#x2dc;" horiz-adv-x="1024" d="M133 1262v127q0 86 35 120q29 33 94 33h45q51 0 137 -26l193 -58l47 82h166v-129q0 -88 -33 -121q-35 -31 -94 -30h-45q-59 0 -139 26l-191 55l-47 -79h-168z" />
<glyph unicode="&#x2000;" horiz-adv-x="919" />
<glyph unicode="&#x2001;" horiz-adv-x="1839" />
<glyph unicode="&#x2002;" horiz-adv-x="919" />
<glyph unicode="&#x2003;" horiz-adv-x="1839" />
<glyph unicode="&#x2004;" horiz-adv-x="613" />
<glyph unicode="&#x2005;" horiz-adv-x="459" />
<glyph unicode="&#x2006;" horiz-adv-x="306" />
<glyph unicode="&#x2007;" horiz-adv-x="306" />
<glyph unicode="&#x2008;" horiz-adv-x="229" />
<glyph unicode="&#x2009;" horiz-adv-x="367" />
<glyph unicode="&#x200a;" horiz-adv-x="102" />
<glyph unicode="&#x2010;" horiz-adv-x="817" d="M713 530h-607v265h607v-265z" />
<glyph unicode="&#x2011;" horiz-adv-x="817" d="M713 530h-607v265h607v-265z" />
<glyph unicode="&#x2012;" horiz-adv-x="817" d="M713 530h-607v265h607v-265z" />
<glyph unicode="&#x2013;" horiz-adv-x="1083" d="M969 532h-852v261h852v-261z" />
<glyph unicode="&#x2014;" horiz-adv-x="1984" d="M1870 535h-1753v256h1753v-256z" />
<glyph unicode="&#x2018;" horiz-adv-x="546" d="M424 799h-318v282q0 121 89 203l188 176l94 -74l-139 -184q-27 -35 -27 -69v-9h113v-325z" />
<glyph unicode="&#x2019;" horiz-adv-x="546" d="M125 1434h317v-281q0 -123 -88 -203l-190 -178l-92 76l139 182q25 35 25 70v8h-111v326z" />
<glyph unicode="&#x201a;" horiz-adv-x="550" d="M125 326h317v-281q0 -123 -88 -205l-190 -176l-92 74l139 184q25 33 25 70v8h-111v326z" />
<glyph unicode="&#x201c;" horiz-adv-x="1013" d="M420 799h-314v282q0 121 89 203l188 176l94 -74l-139 -184q-27 -35 -27 -69v-9h109v-325zM887 799h-316v282q0 121 88 203l191 176l92 -74l-139 -184q-25 -33 -25 -69v-9h109v-325z" />
<glyph unicode="&#x201d;" horiz-adv-x="1013" d="M594 1434h313v-281q0 -123 -88 -203l-188 -178l-94 76l139 182q27 37 26 70v8h-108v326zM127 1434h315v-281q0 -123 -88 -203l-190 -178l-92 76l139 182q25 35 25 70v8h-109v326z" />
<glyph unicode="&#x201e;" horiz-adv-x="1019" d="M125 326h317v-281q0 -123 -88 -205l-190 -176l-92 74l139 184q25 33 25 70v8h-111v326zM594 326h317v-281q0 -123 -88 -205l-190 -176l-92 74l139 184q25 33 25 70v8h-111v326z" />
<glyph unicode="&#x2022;" horiz-adv-x="1079" d="M274 442q-35 35 -49 95.5t-14 206t14.5 207t48.5 96.5q45 43 150 43h231q102 0 152 -43q35 -35 49 -96.5t14 -207t-14 -206t-49 -95.5q-47 -45 -152 -45h-231q-105 0 -150 45z" />
<glyph unicode="&#x2026;" horiz-adv-x="1642" d="M119 319h311v-319h-311v319zM666 319h311v-319h-311v319zM1212 319h312v-319h-312v319z" />
<glyph unicode="&#x202f;" horiz-adv-x="367" />
<glyph unicode="&#x2039;" horiz-adv-x="786" d="M98 477v172l273 291h331l-337 -375l340 -379h-334z" />
<glyph unicode="&#x203a;" horiz-adv-x="786" d="M690 477l-274 -291h-334l340 379l-338 375h332l274 -291v-172z" />
<glyph unicode="&#x2044;" horiz-adv-x="1263" d="M248 -6h-228l527 754l469 692h227l-526 -754z" />
<glyph unicode="&#x205f;" horiz-adv-x="459" />
<glyph unicode="&#x20ac;" horiz-adv-x="1468" d="M870 799h-335v-82v-74h335v-207h-329q6 -143 32 -164q20 -20 99 -20h258q74 0 94 20q29 27 37 263h305q-6 -209 -30.5 -311.5t-82.5 -157.5q-41 -37 -94 -51.5t-158 -14.5h-413q-104 0 -157.5 15.5t-92.5 52.5q-98 92 -121 362h-149v215h141v72v80h-141v215h151 q23 264 119 354q39 37 92 52.5t158 15.5h413q104 0 158.5 -13.5t93.5 -50.5q57 -55 82 -158.5t29 -296.5h-303q-8 219 -37 248q-20 18 -94 19h-258q-78 0 -99 -19q-27 -27 -32 -157h329v-207z" />
<glyph unicode="&#x2122;" horiz-adv-x="1867" d="M1786 1434v-799h-189v575h-16l-160 -530q-12 -45 -55 -45h-86q-27 0 -37 9t-18 36l-162 530h-14v-575h-183v799h267q27 0 38 -8.5t19 -36.5l133 -484h14l129 484q8 29 19.5 37t38.5 8h262zM748 1280h-238v-645h-195v645h-233v154h666v-154z" />
<glyph unicode="&#x25fc;" horiz-adv-x="1126" d="M0 1126h1126v-1126h-1126v1126z" />
</font>
</defs>
</svg>
