<?xml version="1.0" encoding="utf-8"?>
<!-- Generator: Adobe Illustrator 17.1.0, SVG Export Plug-In . SVG Version: 6.00 Build 0)  -->
<!DOCTYPE svg PUBLIC "-//W3C//DTD SVG 1.1//EN" "http://www.w3.org/Graphics/SVG/1.1/DTD/svg11.dtd">
<svg version="1.1" xmlns="http://www.w3.org/2000/svg" xmlns:xlink="http://www.w3.org/1999/xlink" x="0px" y="0px"
	 viewBox="0 0 960 560" enable-background="new 0 0 960 560" xml:space="preserve">
<g id="Layer_1" display="none">
</g>
<g id="Layer_2">
	<path fill="#E0E0E0" d="M503.6,266h-21.2c-3,0-5.4,2.4-5.4,5.4v21.2c0,3,2.4,5.4,5.4,5.4h21.2c3,0,5.4-2.4,5.4-5.4v-21.2
		C509,268.4,506.6,266,503.6,266z M489,292h-4v-14h4V292z M487,276c-1.1,0-2-0.9-2-2s0.9-2,2-2s2,0.9,2,2S488.1,276,487,276z
		 M503,292h-4v-8c0-1.1-0.9-2-2-2s-2,0.9-2,2v8h-4v-14h4v2.5c0.8-1.1,2.1-2.5,3.5-2.5c2.5,0,4.5,2.2,4.5,5V292z"/>
</g>
</svg>
