<svg xmlns="http://www.w3.org/2000/svg" xmlns:xlink="http://www.w3.org/1999/xlink" version="1.1" id="Layer_1" x="0px" y="0px" viewBox="0 0 960 560" enable-background="new 0 0 960 560" xml:space="preserve">
<path fill="#404040" d="M464 290.6c0 3 2.4 5.4 5.4 5.4h21.2c3 0 5.4-2.4 5.4-5.4v-21.2c0-3-2.4-5.4-5.4-5.4h-21.2 c-3 0-5.4 2.4-5.4 5.4"/>
<rect x="472" y="276" fill="#404040" width="4" height="14"/>
<circle fill="#404040" cx="474" cy="272" r="2"/>
<path fill="#404040" d="M490 290h-4v-8c0-1.1-0.9-2-2-2s-2 0.9-2 2v8h-4v-14h4v2.5c0.8-1.1 2.1-2.5 3.5-2.5c2.5 0 4.5 2.2 4.5 5V290 z"/>
</svg>
